<svg width="22" height="22" viewBox="0 0 22 22" fill="none" xmlns="http://www.w3.org/2000/svg">
<rect width="22" height="22" fill="#0F0F0F"/>
<g id="Frame 1">
<rect width="393" height="2236" transform="translate(-22 -1816)" fill="black"/>
<g id="Frame 36">
<g clip-path="url(#clip0_47_159)">
<path d="M-22 -1816H371V293C371 299.627 365.627 305 359 305H-10C-16.6274 305 -22 299.627 -22 293V-1816Z" fill="white"/>
<g id="Frame 59">
<g id="Frame 62">
<g id="Frame 39">
<g id="Frame 61">
<g id="Frame 60">
<g id="Group 14">
<path id="Vector 19" d="M13.4642 3.99977L17.5 7.49976V19.9998H3.5V3.99976L13.4642 3.99977ZM17.5 7.49976H13.4642V3.99977" stroke="#171717"/>
<path id="Vector 20" d="M14.5 13H6.5" stroke="#171717"/>
<path id="Vector 21" d="M14.5 16H6.5" stroke="#171717"/>
</g>
</g>
</g>
</g>
</g>
</g>
</g>
</g>
</g>
<defs>
<clipPath id="clip0_47_159">
<path d="M-22 -1816H371V293C371 299.627 365.627 305 359 305H-10C-16.6274 305 -22 299.627 -22 293V-1816Z" fill="white"/>
</clipPath>
</defs>
</svg>
