<svg width="22" height="22" viewBox="0 0 22 22" fill="none" xmlns="http://www.w3.org/2000/svg">
<rect width="22" height="22" fill="#0F0F0F"/>
<g id="Frame 1">
<rect width="393" height="2236" transform="translate(-22 -2032)" fill="black"/>
<g id="Frame 36">
<g clip-path="url(#clip0_47_159)">
<path d="M-22 -2032H371V77C371 83.6274 365.627 89 359 89H-10C-16.6274 89 -22 83.6274 -22 77V-2032Z" fill="white"/>
<g id="Frame 59">
<g id="Frame 66">
<g id="Frame 39">
<g id="Frame 61">
<g id="Frame 60">
<g id="Group 19">
<path id="Vector 31" d="M4 10.5V18.5H18V10.5H4Z" stroke="#141414"/>
<path id="Vector 33" d="M3 7.5V10.5H19V7.5H3Z" stroke="#141414"/>
<path id="Vector 32" d="M9 10.5V18.5H13V10.5H9Z" stroke="#141414"/>
<path id="Vector 34" d="M9 7.5V10.5H13V7.5H9Z" stroke="#141414"/>
<g id="Group 18">
<path id="Vector 35" d="M11 6V7.5H6.00012C4.00012 7 4.00002 3 7.00002 3C9.40002 3 10.6667 5 11 6Z" stroke="#141414"/>
<path id="Vector 36" d="M11 6V7.5H15.9999C17.9999 7 18 3 15 3C12.6 3 11.3333 5 11 6Z" stroke="#141414"/>
</g>
</g>
</g>
</g>
</g>
</g>
</g>
</g>
</g>
</g>
<defs>
<clipPath id="clip0_47_159">
<path d="M-22 -2032H371V77C371 83.6274 365.627 89 359 89H-10C-16.6274 89 -22 83.6274 -22 77V-2032Z" fill="white"/>
</clipPath>
</defs>
</svg>
