<svg width="22" height="22" viewBox="0 0 22 22" fill="none" xmlns="http://www.w3.org/2000/svg">
<rect width="22" height="22" fill="#0F0F0F"/>
<g id="Frame 1">
<rect width="393" height="2236" transform="translate(-22 -1978)" fill="black"/>
<g id="Frame 36">
<g clip-path="url(#clip0_47_159)">
<path d="M-22 -1978H371V131C371 137.627 365.627 143 359 143H-10C-16.6274 143 -22 137.627 -22 131V-1978Z" fill="white"/>
<g id="Frame 59">
<g id="Frame 65">
<g id="Frame 39">
<g id="Frame 61">
<g id="Frame 60">
<g id="Group 16">
<path id="Vector 31" d="M2.5 4.5V20L6.5 16.5H18.5V4.5H2.5Z" stroke="#141414"/>
<circle id="Ellipse 16" cx="7" cy="11" r="1" fill="#141414"/>
<circle id="Ellipse 17" cx="11" cy="11" r="1" fill="#141414"/>
<circle id="Ellipse 18" cx="15" cy="11" r="1" fill="#141414"/>
</g>
</g>
</g>
</g>
</g>
</g>
</g>
</g>
</g>
<defs>
<clipPath id="clip0_47_159">
<path d="M-22 -1978H371V131C371 137.627 365.627 143 359 143H-10C-16.6274 143 -22 137.627 -22 131V-1978Z" fill="white"/>
</clipPath>
</defs>
</svg>
