<svg width="24" height="24" viewBox="0 0 24 24" fill="none" xmlns="http://www.w3.org/2000/svg">
<rect width="24" height="24" fill="#0F0F0F"/>
<g id="Frame 1">
<rect width="393" height="2236" transform="translate(-344 -86.5)" fill="black"/>
<g id="Frame 36">
<path d="M-344 -86.5H49V2022.5C49 2029.13 43.6274 2034.5 37 2034.5H-332C-338.627 2034.5 -344 2029.13 -344 2022.5V-86.5Z" fill="white"/>
<g id="Frame 68">
<g id="Frame 71">
<g id="Frame 71_2">
<g id="Group 22">
<path id="Vector 40" d="M12.2441 3.75C15.8709 3.75013 18.8105 6.69057 18.8105 10.3174V13.0752C18.8106 14.4058 19.3214 15.6861 20.2363 16.6523L20.9512 17.4072C21.1431 17.61 21.25 17.879 21.25 18.1582C21.2499 18.7611 20.7611 19.2499 20.1582 19.25H3.8418C3.23887 19.2499 2.75012 18.7611 2.75 18.1582C2.75 17.879 2.85688 17.61 3.04883 17.4072L3.76367 16.6523C4.67858 15.6861 5.18936 14.4058 5.18945 13.0752V10.8047C5.18955 6.90847 8.3479 3.75 12.2441 3.75Z" stroke="black" stroke-width="1.5"/>
<circle id="Ellipse 20" cx="12" cy="2" r="2" fill="black"/>
<path id="Ellipse 21" d="M12 24C14.2091 24 16 22.2091 16 20H8C8 22.2091 9.79086 24 12 24Z" fill="black"/>
</g>
</g>
</g>
</g>
</g>
</g>
</svg>
