<svg width="24" height="23" viewBox="0 0 24 23" fill="none" xmlns="http://www.w3.org/2000/svg">
<rect width="24" height="23" fill="#0F0F0F"/>
<g id="Frame 1">
<rect width="393" height="2236" transform="translate(-44.75 -512)" fill="black"/>
<g id="Frame 36">
<path d="M-44.75 -512H348.25V1597C348.25 1603.63 342.877 1609 336.25 1609H-32.75C-39.3774 1609 -44.75 1603.63 -44.75 1597V-512Z" fill="white"/>
<g id="Frame 23">
<g id="Frame 22">
<g id="Frame 24">
<g id="Frame 18" filter="url(#filter0_d_47_159)">
<rect x="-20.75" y="-21" width="65" height="65" rx="32.5" fill="white" shape-rendering="crispEdges"/>
<rect x="-20.625" y="-20.875" width="64.75" height="64.75" rx="32.375" stroke="#EDEDED" stroke-width="0.25" shape-rendering="crispEdges"/>
<g id="Frame 19">
<rect x="-15.625" y="-15.875" width="54.75" height="54.75" rx="27.375" fill="url(#paint0_linear_47_159)"/>
<rect x="-15.625" y="-15.875" width="54.75" height="54.75" rx="27.375" stroke="#EDEDED" stroke-width="0.25"/>
<g id="icon">
<g id="Group 1">
<path id="Vector 2" d="M0.5 8.5V19.5C0.5 21.1569 1.84315 22.5 3.5 22.5H20C21.6569 22.5 23 21.1569 23 19.5V18.5" stroke="black"/>
<path id="Vector 3" d="M3.5 12L1 9.5V10" stroke="black" stroke-width="2"/>
<path id="Vector 4" d="M20 10.5L22.5 13L22.5 12.5" stroke="black" stroke-width="2"/>
</g>
<g id="Group 2">
<path id="Vector 2_2" d="M23 14.5L23 3.5C23 1.84315 21.6569 0.5 20 0.5L3.5 0.499998C1.84315 0.499998 0.500001 1.84314 0.500001 3.5L0.500001 4.5" stroke="black"/>
</g>
<path id="Ellipse 6" d="M11.5 12C13.2287 12 14.7693 12.3788 15.8594 12.9658C16.9696 13.5637 17.5 14.3057 17.5 15C17.5 15.6943 16.9696 16.4363 15.8594 17.0342C14.7693 17.6212 13.2287 18 11.5 18C9.77126 18 8.23073 17.6212 7.14062 17.0342C6.03041 16.4363 5.5 15.6943 5.5 15C5.5 14.3057 6.03041 13.5637 7.14062 12.9658C8.23073 12.3788 9.77126 12 11.5 12Z" fill="#C2C2C2" stroke="#252525"/>
<circle id="Ellipse 7" cx="11.5" cy="7" r="3" stroke="#252525"/>
</g>
</g>
</g>
</g>
</g>
</g>
</g>
</g>
<defs>
<filter id="filter0_d_47_159" x="-28.75" y="-21" width="81" height="81" filterUnits="userSpaceOnUse" color-interpolation-filters="sRGB">
<feFlood flood-opacity="0" result="BackgroundImageFix"/>
<feColorMatrix in="SourceAlpha" type="matrix" values="0 0 0 0 0 0 0 0 0 0 0 0 0 0 0 0 0 0 127 0" result="hardAlpha"/>
<feOffset dy="8"/>
<feGaussianBlur stdDeviation="4"/>
<feComposite in2="hardAlpha" operator="out"/>
<feColorMatrix type="matrix" values="0 0 0 0 0 0 0 0 0 0 0 0 0 0 0 0 0 0 0.08 0"/>
<feBlend mode="normal" in2="BackgroundImageFix" result="effect1_dropShadow_47_159"/>
<feBlend mode="normal" in="SourceGraphic" in2="effect1_dropShadow_47_159" result="shape"/>
</filter>
<linearGradient id="paint0_linear_47_159" x1="11.75" y1="-16" x2="11.75" y2="39" gradientUnits="userSpaceOnUse">
<stop stop-color="#F2F2F2"/>
<stop offset="1" stop-color="#FBFBFB"/>
</linearGradient>
</defs>
</svg>
